<?xml version="1.0" encoding="UTF-8"?>
<svg width="48px" height="46px" viewBox="0 0 48 46" version="1.1" xmlns="http://www.w3.org/2000/svg" xmlns:xlink="http://www.w3.org/1999/xlink">
    <!-- Generator: Sketch 59.1 (86144) - https://sketch.com -->
    <title>Shape</title>
    <desc>Created with Sketch.</desc>
    <g id="Page-1" stroke="none" stroke-width="1" fill="none" fill-rule="evenodd">
        <g id="raleigh-felton-logo" fill="#CAA057" fill-rule="nonzero">
            <path d="M24.9354974,30.5805383 C24.4314159,30.5751298 23.8702334,30.5525926 23.2562833,30.5525926 C20.7443916,30.5525926 19.002017,29.1638187 19.002017,26.54955 C19.002017,23.5268581 21.0685283,20.5858057 21.0685283,17.4814744 C21.0685283,15.3164485 19.528823,14.2952779 17.341068,14.2952779 L12.6816866,14.2952779 L8.5893768,28.6327108 C8.4274203,29.2454583 8.4679094,29.3270978 9.0756937,29.3270978 L12.1143915,29.3270978 C12.276348,29.3270978 12.3575499,29.3679175 12.3575499,29.6947011 C12.3575499,30.0217103 12.276348,30.0623045 12.1143915,30.0623045 L0.2430242,30.0623045 C0.080844,30.0623045 8.95e-05,30.0217103 8.95e-05,29.6947011 C8.95e-05,29.3679175 0.080844,29.3270978 0.2430242,29.3270978 L3.1197655,29.3270978 C3.7275498,29.3270978 3.8490172,29.2454583 4.0109737,28.6327108 L11.7497656,1.4693037 C11.9117221,0.8565563 11.8307439,0.7749168 11.2229596,0.7749168 L8.6298659,0.7749168 C8.4679094,0.7749168 8.3869311,0.734097 8.3869311,0.4073134 C8.3869311,0.0805298 8.4679094,0.03971 8.6298659,0.03971 L19.8934488,0.03971 C24.9579451,0.03971 28.118334,2.6539788 28.118334,5.8807695 C28.118334,9.8838121 24.4718519,12.3753961 19.6910032,13.6417107 L19.6910032,13.8052153 C23.1348159,14.9080253 25.322571,16.337619 25.322571,19.5238154 C25.322571,22.3830028 23.4184635,25.610019 23.4184635,28.0607832 C23.4184635,28.8370351 23.7021111,29.7569456 24.5528302,29.7569456 C24.760108,29.7569456 24.9629956,29.7736505 25.1599685,29.7926147 L28.7033907,17.3547301 C28.8655709,16.7419827 28.8250818,16.6603432 28.2172975,16.6603432 L25.6244275,16.6603432 C25.4622473,16.6603432 25.381269,16.6192979 25.381269,16.2925143 C25.381269,15.9657307 25.4622473,15.9249109 25.6244275,15.9249109 L47.3814051,15.9249109 C47.9487003,15.9249109 47.9891894,16.1292353 47.8272329,16.7011629 L45.5582759,24.7070227 C45.5177868,24.9113471 45.2746284,25.0338063 45.1126719,25.0338063 C44.9100025,25.0338063 44.8290243,24.9113471 44.8290243,24.7070227 C44.8290243,18.1715764 43.3705209,16.6603432 39.1162546,16.6603432 L34.1732256,16.6603432 C33.5654413,16.6603432 33.443974,16.7419827 33.2817938,17.3547301 L29.7162899,29.813101 L32.0662252,29.813101 C35.8343983,29.813101 37.3741036,28.6694712 39.2784348,25.1973109 C39.359413,25.0338063 39.5213695,24.9113471 39.7240388,24.9113471 C39.8859954,24.9113471 40.0481756,24.9929866 40.0074627,25.1973109 L37.0092541,35.7766197 C36.9282758,35.980944 36.8068085,36.1034033 36.56365,36.1034033 C36.3612044,36.1034033 36.2800024,35.980944 36.2800024,35.7766197 C36.3204915,31.8962618 35.6722181,30.5483077 31.9042687,30.5483077 L29.5138443,30.5483077 L25.5432255,44.5181372 C25.381269,45.1308847 25.4215344,45.2125242 26.0293187,45.2125242 L29.6760245,45.2125242 C29.8377573,45.2125242 29.9189593,45.253344 29.9189593,45.5801276 C29.9189593,45.9069111 29.8377573,45.9477309 29.6760245,45.9477309 L17.2778512,45.9477309 C17.115671,45.9477309 17.0346928,45.9069111 17.0346928,45.5801276 C17.0346928,45.253344 17.115671,45.2125242 17.2778512,45.2125242 L20.0736143,45.2125242 C20.6811749,45.2125242 20.8028659,45.1308847 20.9648224,44.5181372 L24.9354974,30.5805383 Z M20.2175855,0.7749168 L17.1788878,0.7749168 C16.5711035,0.7749168 16.4901252,0.8565563 16.327945,1.4693037 L12.8841323,13.5600712 L16.5711035,13.5600712 C18.5159237,13.5600712 19.8124706,12.906504 20.9468372,11.7628742 C22.6487227,10.0473167 23.7830894,6.738661 23.7830894,4.0427527 C23.7830894,1.9185466 22.4865425,0.7749168 20.2175855,0.7749168 Z" id="Shape"></path>
        </g>
    </g>
</svg>