<?xml version="1.0" encoding="utf-8"?>
<!-- Generator: Adobe Illustrator 22.0.1, SVG Export Plug-In . SVG Version: 6.00 Build 0)  -->
<svg version="1.1" id="Layer_1" xmlns="http://www.w3.org/2000/svg" xmlns:xlink="http://www.w3.org/1999/xlink" x="0px" y="0px"
	 viewBox="0 0 238.3 359.8" style="enable-background:new 0 0 238.3 359.8;" xml:space="preserve">
<style type="text/css">
	.st0{fill:#FFFFFF;}
</style>
<g id="Layer_2_1_">
	<g>
		<path class="st0" d="M196.5,110.8L118.8,0L41.1,110.8L0,286.9l118.9,72.9h0.5l118.9-72.9L196.5,110.8z M120.9,9.8l71.5,102
			L173,175.1l-52-91.4V9.8H120.9z M116.9,83.6l-52.1,90.8l-19.3-62.7L117,9.7v73.9H116.9z M118.9,88.1l52.4,92.1l-31.5,102.6H98.3
			L66.4,179.6L118.9,88.1z M174,185l55.7,97.8H144L174,185z M138.6,286.8l-19.5,63.5l-19.6-63.5H138.6z M94.1,282.8H7.2l56.5-98.5
			L94.1,282.8z M95.3,286.8l20.5,66.4L7.5,286.8H95.3z M142.8,286.8h87.9l-108.3,66.4L142.8,286.8z M232.3,279.4l-56.7-99.6
			l18.7-60.9L232.3,279.4z M43.4,118.8L62,179.1L6.8,275.4L43.4,118.8z"/>
	</g>
</g>
</svg>
